<?xml version="1.0" encoding="UTF-8" standalone="no"?>
<svg
   width="16"
   height="16"
   version="1.1"
   id="svg1"
   sodipodi:docname="buymeacoffee.svg"
   inkscape:version="1.4.3 (0d15f75042, 2025-12-25)"
   xmlns:inkscape="http://www.inkscape.org/namespaces/inkscape"
   xmlns:sodipodi="http://sodipodi.sourceforge.net/DTD/sodipodi-0.dtd"
   xmlns="http://www.w3.org/2000/svg"
   xmlns:svg="http://www.w3.org/2000/svg">
  <sodipodi:namedview
     id="namedview1"
     pagecolor="#ffffff"
     bordercolor="#000000"
     borderopacity="0.25"
     inkscape:showpageshadow="2"
     inkscape:pageopacity="0.0"
     inkscape:pagecheckerboard="true"
     inkscape:deskcolor="#d1d1d1"
     inkscape:zoom="17.681818"
     inkscape:cx="9.7840618"
     inkscape:cy="14.902314"
     inkscape:window-width="1129"
     inkscape:window-height="983"
     inkscape:window-x="0"
     inkscape:window-y="0"
     inkscape:window-maximized="0"
     inkscape:current-layer="svg1" />
  <defs
     id="defs1">
    <style
       id="current-color-scheme"
       type="text/css">
   .ColorScheme-Text { color:#dfdfdf; } .ColorScheme-Highlight { color:#4285f4; } .ColorScheme-NeutralText { color:#ff9800; } .ColorScheme-PositiveText { color:#4caf50; } .ColorScheme-NegativeText { color:#f44336; }
  </style>
  </defs>
  <g
     id="g1"
     transform="matrix(0.74998868,0,0,0.74998868,-0.24913954,-0.24959404)">
    <path
       style="fill:#000000;stroke-width:0.455737"
       d="m 11.386093,10.391447 c -0.574678,0.246672 -1.22669,0.525344 -2.0727064,0.525344 a 3.922741,3.922741 0 0 1 -1.0460199,-0.14467 l 0.5846778,6.002781 c 0.043334,0.52001 0.4780091,0.920017 1.000019,0.920017 0,0 0.8286825,0.04334 1.1053545,0.04334 0.298005,0 1.190689,-0.04334 1.190689,-0.04334 0.52201,0 0.956018,-0.400007 0.999352,-0.920017 l 0.626679,-6.633459 A 2.6640505,2.6640505 0 0 0 12.892787,9.9827728 c -0.550677,0 -0.994018,0.1893372 -1.506694,0.4086742 z"
       id="path2" />
    <path
       id="path1"
       style="fill:#000000;stroke-width:0.455737"
       d="M 10.527344,3.0019531 A 17.222993,17.222993 0 0 0 9.2949219,3.0664062 C 8.6849103,3.1217406 8.0409485,3.1897199 7.4609375,3.4003906 7.2489335,3.4777254 7.030477,3.5710386 6.8691406,3.734375 6.6711368,3.9357122 6.6059973,4.2473755 6.75,4.4980469 c 0.1026686,0.1780034 0.2782204,0.3040505 0.4628906,0.3867187 0.2400046,0.1080021 0.4907087,0.1894729 0.7480469,0.2441406 0.7166802,0.1586697 1.4593926,0.2220464 2.1914065,0.2480469 0.812015,0.033334 1.624912,0.00526 2.433594,-0.080078 0.199336,-0.022 0.398986,-0.047458 0.597656,-0.078125 0.234671,-0.036001 0.383788,-0.3426366 0.314453,-0.5566406 -0.08267,-0.2553382 -0.303349,-0.3550737 -0.554688,-0.3164063 -0.310672,0.049334 -0.640537,0.072322 -0.921875,0.097656 -0.784682,0.053334 -1.572073,0.054574 -2.3574215,0.00391 A 14.818948,14.818948 0 0 1 8.8925781,4.3769531 C 8.8352441,4.3702831 8.7727041,4.3608486 8.7207031,4.3535156 8.5587,4.3295146 8.3982842,4.298959 8.2382812,4.265625 c -0.074001,-0.018 -0.074001,-0.1226246 0,-0.140625 h 0.00391 C 8.4268613,4.084998 8.613448,4.053345 8.8007849,4.027344 8.8881199,4.021344 8.9771218,4.004808 9.0644568,3.994141 A 16.71765,16.71765 0 0 1 11.34766,3.914063 c 0.449341,0.012667 0.899028,0.044369 1.345703,0.095703 l 0.152344,0.021484 c 0.178003,0.026667 0.35458,0.059655 0.53125,0.097656 0.261338,0.056668 0.596222,0.075323 0.712891,0.3613282 0.03667,0.091335 0.05355,0.1917743 0.07422,0.2871094 l 0.212891,0.9882812 a 0.158003,0.158003 0 0 1 -0.132812,0.1894531 h -0.002 c -0.02467,0.004 -0.04955,0.00644 -0.07422,0.00977 A 24.469797,24.469797 0 0 1 11.005859,6.1621094 24.706468,24.706468 0 0 1 7.8730469,5.9589844 C 7.7797118,5.9476508 7.6764183,5.9319222 7.59375,5.9199219 7.3764126,5.8879213 7.1613166,5.847834 6.9453125,5.8125 6.6833075,5.7691658 6.4339367,5.7912528 6.1972656,5.9199219 6.0039286,6.0265906 5.8467154,6.1887151 5.7480469,6.3867188 5.6453782,6.5973895 5.6136936,6.8260635 5.5683594,7.0527344 c -0.046001,0.226671 -0.1171777,0.472407 -0.089844,0.7050781 0.058001,0.5020095 0.4093863,0.9086649 0.9140625,1 a 26.460502,26.460502 0 0 0 7.5625001,0.2519531 0.32200611,0.32200611 0 0 1 0.355469,0.3535156 l -0.04687,0.4648438 -0.677734,6.603516 c -0.02733,0.273338 -0.03199,0.556167 -0.08399,0.826171 -0.08133,0.424676 -0.367767,0.683961 -0.787109,0.779297 -0.384674,0.08733 -0.777868,0.133385 -1.171875,0.136719 -0.437342,0.0027 -0.873205,-0.01567 -1.310547,-0.01367 C 9.7664132,18.162858 9.1952774,18.120118 8.8359373,17.77344 8.5192558,17.468101 8.4769279,16.990799 8.4335938,16.578125 L 7.9453125,11.902344 7.7304688,9.8398438 C 7.7058017,9.6058393 7.5406352,9.3753851 7.2792969,9.3867188 c -0.2240042,0.01 -0.4797922,0.2004535 -0.453125,0.453125 l 0.1523437,1.4570312 0.6328125,6.074219 c 0.098002,0.896017 0.7828433,1.379623 1.6308594,1.515625 0.494676,0.08 1.0012305,0.09551 1.5039065,0.103515 0.644012,0.01067 1.294389,0.03463 1.927734,-0.08203 0.938685,-0.172003 1.643473,-0.798798 1.744141,-1.771484 0.226671,-2.221375 0.456256,-4.440735 0.683593,-6.66211 l 0.142579,-1.3925778 a 0.32267279,0.32267279 0 0 1 0.259765,-0.2832031 c 0.268005,-0.052001 0.52546,-0.1416993 0.716797,-0.3457031 0.302896,-0.324864 0.362547,-0.7484106 0.255859,-1.1757812 v -0.00195 L 16.388672,6.8320312 C 16.309336,6.4333571 16.131331,6.0580652 15.722656,5.9140625 15.591321,5.8680616 15.441799,5.8472882 15.341797,5.7519531 15.240462,5.656618 15.210834,5.5084298 15.1875,5.3710938 15.144166,5.1190891 15.105214,4.8665725 15.060547,4.6152344 15.022546,4.3985636 14.991247,4.1550351 14.892578,3.9570312 14.762576,3.6903595 14.494522,3.5362623 14.228516,3.4335938 A 3.8154057,3.8154057 0 0 0 13.8125,3.3027344 C 13.145821,3.1273978 12.446399,3.0627247 11.761719,3.0253906 A 17.222993,17.222993 0 0 0 10.527344,3.0019531 Z M 6.8457031,6.7011719 c 0.2922556,0.00136 0.6145259,0.1103434 0.8945313,0.1523437 0.384674,0.058668 0.7708624,0.1072442 1.1582031,0.1425782 1.6533645,0.1506695 3.3337705,0.126254 4.9804685,-0.09375 0.300006,-0.040001 0.599146,-0.08729 0.896485,-0.140625 0.266005,-0.048001 0.5607,-0.1379532 0.720703,0.1367187 0.110669,0.1873369 0.124756,0.4390532 0.107422,0.6503906 a 0.36267354,0.36267354 0 0 1 -0.111328,0.2421875 c -0.09667,0.091335 -0.241429,0.1349163 -0.384766,0.15625 C 13.496725,8.1866035 11.862406,8.3072405 10.234375,8.2539062 9.06902,8.2139055 7.9170271,8.0845447 6.7636719,7.921875 6.6503364,7.9058747 6.5272201,7.8841161 6.4492188,7.8007812 6.3025493,7.643445 6.3760617,7.3286755 6.4140625,7.1386719 6.4487298,6.9653353 6.515319,6.7316983 6.7226562,6.7070312 c 0.040334,-0.00475 0.081296,-0.00605 0.1230469,-0.00586 z" />
  </g>
</svg>
