<?xml version="1.0" encoding="UTF-8" standalone="no"?>
<svg
   width="16"
   height="16"
   version="1.1"
   id="svg1"
   sodipodi:docname="discord.svg"
   inkscape:version="1.4.3 (0d15f75042, 2025-12-25)"
   xmlns:inkscape="http://www.inkscape.org/namespaces/inkscape"
   xmlns:sodipodi="http://sodipodi.sourceforge.net/DTD/sodipodi-0.dtd"
   xmlns="http://www.w3.org/2000/svg"
   xmlns:svg="http://www.w3.org/2000/svg">
  <sodipodi:namedview
     id="namedview1"
     pagecolor="#ffffff"
     bordercolor="#000000"
     borderopacity="0.25"
     inkscape:showpageshadow="2"
     inkscape:pageopacity="0.0"
     inkscape:pagecheckerboard="0"
     inkscape:deskcolor="#d1d1d1"
     inkscape:zoom="17.681818"
     inkscape:cx="6.899743"
     inkscape:cy="14.930591"
     inkscape:window-width="1129"
     inkscape:window-height="950"
     inkscape:window-x="0"
     inkscape:window-y="42"
     inkscape:window-maximized="0"
     inkscape:current-layer="svg1" />
  <defs
     id="defs1">
    <style
       id="current-color-scheme"
       type="text/css">
   .ColorScheme-Text { color:#dfdfdf; } .ColorScheme-Highlight { color:#4285f4; } .ColorScheme-NeutralText { color:#ff9800; } .ColorScheme-PositiveText { color:#4caf50; } .ColorScheme-NegativeText { color:#f44336; }
  </style>
  </defs>
  <path
     d="m 13.455789,2.9947678 a 12.982725,12.982725 0 0 0 -3.204535,-0.9939431 0.04860822,0.04860822 0 0 0 -0.05149,0.024336 c -0.138417,0.2461901 -0.291719,0.567293 -0.399038,0.8196491 -1.21009,-0.181182 -2.4140109,-0.181182 -3.599238,0 C 6.0941693,2.5868129 5.9352905,2.2713513 5.7962879,2.0251616 A 0.05051056,0.05051056 0 0 0 5.7447933,2.0008903 12.946647,12.946647 0 0 0 2.540193,2.9947021 0.04585311,0.04585311 0 0 0 2.519136,3.0128728 C 0.47811577,6.0621367 -0.08104263,9.0364209 0.19328857,11.97384 a 0.05405287,0.05405287 0 0 0 0.020467,0.0368 c 1.34659873,0.988958 2.65101773,1.589313 3.93123103,1.987232 a 0.05096976,0.05096976 0 0 0 0.055234,-0.01811 C 4.503021,13.566236 4.7729573,13.13014 5.0044531,12.671608 a 0.04985457,0.04985457 0 0 0 -0.027289,-0.06934 C 4.5489393,12.439856 4.141247,12.241815 3.7490358,12.016944 a 0.05051056,0.05051056 0 0 1 -0.00499,-0.08376 c 0.082522,-0.06186 0.1651105,-0.126146 0.2438939,-0.191153 a 0.04873942,0.04873942 0 0 1 0.050904,-0.007 c 2.5765636,1.176371 5.3659263,1.176371 7.9120523,0 a 0.04847703,0.04847703 0 0 1 0.05149,0.0062 c 0.07885,0.06494 0.16137,0.12995 0.24455,0.191808 a 0.05051056,0.05051056 0 0 1 -0.0043,0.0837 8.0676526,8.0676526 0 0 1 -1.228653,0.584742 0.05024818,0.05024818 0 0 0 -0.02671,0.06999 c 0.236416,0.457874 0.506353,0.893971 0.803577,1.307502 a 0.04985457,0.04985457 0 0 0 0.05523,0.01875 c 1.286376,-0.397996 2.590796,-0.998351 3.937395,-1.987244 a 0.05051056,0.05051056 0 0 0 0.02053,-0.03621 C 16.132259,8.5784159 15.254162,5.6285329 13.476255,3.0134632 a 0.04001486,0.04001486 0 0 0 -0.02047,-0.018761 z M 5.3891861,10.185241 c -0.7756981,0 -1.4148864,-0.7121981 -1.4148864,-1.5868191 0,-0.8745543 0.6267903,-1.5867522 1.4149518,-1.5867522 0.7942623,0 1.4272187,0.71843 1.4148207,1.5868182 0,0.874555 -0.6267901,1.5867531 -1.4148861,1.5867531 z m 5.2313199,0 c -0.775698,0 -1.414886,-0.7121981 -1.414886,-1.5868191 0,-0.8745543 0.626724,-1.5867522 1.414886,-1.5867522 0.794261,0 1.427218,0.71843 1.414819,1.5868182 0,0.874555 -0.620558,1.5867531 -1.414819,1.5867531 z"
     id="path1-5"
     class="ColorScheme-Text"
     style="fill:currentColor;stroke-width:0.448424" />
</svg>
