<?xml version="1.0" encoding="UTF-8" standalone="no"?>
<svg
   width="32"
   height="32"
   version="1.1"
   id="svg2"
   sodipodi:docname="error.svg"
   inkscape:version="1.3.2 (091e20ef0f, 2023-11-25, custom)"
   xmlns:inkscape="http://www.inkscape.org/namespaces/inkscape"
   xmlns:sodipodi="http://sodipodi.sourceforge.net/DTD/sodipodi-0.dtd"
   xmlns="http://www.w3.org/2000/svg"
   xmlns:svg="http://www.w3.org/2000/svg">
  <sodipodi:namedview
     id="namedview2"
     pagecolor="#ffffff"
     bordercolor="#000000"
     borderopacity="0.25"
     inkscape:showpageshadow="2"
     inkscape:pageopacity="0.0"
     inkscape:pagecheckerboard="0"
     inkscape:deskcolor="#d1d1d1"
     inkscape:zoom="9.5459416"
     inkscape:cx="20.322773"
     inkscape:cy="22.365525"
     inkscape:window-width="1920"
     inkscape:window-height="1048"
     inkscape:window-x="0"
     inkscape:window-y="32"
     inkscape:window-maximized="1"
     inkscape:current-layer="22-22-material-you" />
  <defs
     id="materia">
    <style
       id="current-color-scheme"
       type="text/css">
   .ColorScheme-Background {color:#181818; } .ColorScheme-ButtonBackground { color:#343434; } .ColorScheme-Highlight { color:#4285f4; } .ColorScheme-Text { color:#dfdfdf; } .ColorScheme-ViewBackground { color:#242424; } .ColorScheme-NegativeText { color:#f44336; } .ColorScheme-PositiveText { color:#4caf50; } .ColorScheme-NeutralText { color:#ff9800; }
  </style>
  </defs>
  <g
     id="22-22-material-you"
     transform="translate(27,5.0000005)"
     style="opacity:1;fill:currentColor"
     class="ColorScheme-Text">
    <rect
       style="opacity:0.00100002"
       width="22"
       height="22"
       x="4.7904868"
       y="5"
       id="rect1" />
    <path
       d="m 12.474932,8 -4.6844452,4.684445 v 6.63111 L 12.474932,24 h 6.63111 l 4.684445,-4.684445 v -6.63111 L 19.106042,8 m -6.506666,3.555555 3.191111,3.191112 3.191111,-3.191112 1.253334,1.253334 L 17.04382,16 20.234932,19.191111 18.981598,20.444445 15.790487,17.253333 12.599376,20.444445 11.346042,19.191111 14.537154,16 11.346042,12.808889"
       id="path1-3-6"
       style="fill:currentColor;stroke-width:0.888887" />
  </g>
  <g
     id="material-you"
     class="ColorScheme-Text"
     style="opacity:1;fill:currentColor"
     transform="translate(35.302961,-8.4852813)">
    <rect
       style="opacity:0.00100002"
       width="32"
       height="32"
       x="-35.302959"
       y="8.485281"
       id="rect2" />
    <path
       d="m -24.276292,12.485281 -7.026668,7.026667 v 9.946666 l 7.026668,7.026667 h 9.946666 l 7.0266667,-7.026667 v -9.946666 l -7.0266667,-7.026667 m -9.76,5.333333 4.786667,4.786667 4.786667,-4.786667 1.88,1.88 -4.786667,4.786667 4.786667,4.786667 -1.88,1.88 -4.786667,-4.786667 -4.786667,4.786667 -1.880001,-1.88 4.786668,-4.786667 -4.786668,-4.786667"
       id="path1-3"
       style="stroke-width:1.33333" />
  </g>
</svg>
