<?xml version="1.0" encoding="UTF-8" standalone="no"?>
<svg
   width="16"
   height="16"
   version="1.1"
   id="svg1"
   sodipodi:docname="githubstar.svg"
   inkscape:version="1.4.3 (0d15f75042, 2025-12-25)"
   xmlns:inkscape="http://www.inkscape.org/namespaces/inkscape"
   xmlns:sodipodi="http://sodipodi.sourceforge.net/DTD/sodipodi-0.dtd"
   xmlns="http://www.w3.org/2000/svg"
   xmlns:svg="http://www.w3.org/2000/svg">
  <sodipodi:namedview
     id="namedview1"
     pagecolor="#ffffff"
     bordercolor="#000000"
     borderopacity="0.25"
     inkscape:showpageshadow="2"
     inkscape:pageopacity="0.0"
     inkscape:pagecheckerboard="true"
     inkscape:deskcolor="#d1d1d1"
     inkscape:zoom="17.681818"
     inkscape:cx="2.8277635"
     inkscape:cy="14.902314"
     inkscape:window-width="1129"
     inkscape:window-height="983"
     inkscape:window-x="0"
     inkscape:window-y="0"
     inkscape:window-maximized="0"
     inkscape:current-layer="svg1" />
  <defs
     id="defs1">
    <style
       id="current-color-scheme"
       type="text/css">
   .ColorScheme-Text { color:#dfdfdf; } .ColorScheme-Highlight { color:#4285f4; } .ColorScheme-NeutralText { color:#ff9800; } .ColorScheme-PositiveText { color:#4caf50; } .ColorScheme-NegativeText { color:#f44336; }
  </style>
  </defs>
  <path
     d="m 8.0008026,2.0000001 a 0.63546007,0.63546007 0 0 1 0.5702197,0.3541631 l 1.5945807,3.2323735 3.567049,0.5185354 A 0.63546007,0.63546007 0 0 1 14.08512,7.1887433 L 11.504305,9.7051651 12.1135,13.256963 a 0.63630735,0.63630735 0 0 1 -0.921841,0.670199 L 8.0008026,12.249547 4.8099457,13.927162 A 0.63546007,0.63546007 0 0 1 3.888105,13.25781 L 4.4981466,9.7043181 1.9156369,7.1887433 A 0.63546007,0.63546007 0 0 1 2.2681054,6.1042248 L 5.8351546,5.5865367 7.4305828,2.3541632 A 0.63546007,0.63546007 0 0 1 8.0008026,2.0000001 Z m 0,2.0715998 -1.173483,2.3766207 A 0.63546007,0.63546007 0 0 1 6.3494537,6.7956054 l -2.6240265,0.381276 1.8979074,1.8504597 a 0.63546007,0.63546007 0 0 1 0.1830125,0.562594 l -0.4473639,2.6130119 2.3461184,-1.23364 a 0.63546007,0.63546007 0 0 1 0.591402,0 l 2.3469644,1.23364 -0.449058,-2.6130119 a 0.63546007,0.63546007 0 0 1 0.183012,-0.562594 L 12.27533,7.1777287 9.6521514,6.7964527 A 0.63546007,0.63546007 0 0 1 9.1742854,6.4490678 L 8.0008026,4.0707526 Z"
     id="path1-5"
     class="ColorScheme-Text"
     style="fill:#9198a1;stroke-width:0.498505" />
</svg>
