<?xml version="1.0" encoding="UTF-8" standalone="no"?>
<svg
   width="32"
   height="32"
   version="1.1"
   id="svg2"
   sodipodi:docname="icon.svg"
   inkscape:version="1.3.2 (091e20ef0f, 2023-11-25, custom)"
   xmlns:inkscape="http://www.inkscape.org/namespaces/inkscape"
   xmlns:sodipodi="http://sodipodi.sourceforge.net/DTD/sodipodi-0.dtd"
   xmlns="http://www.w3.org/2000/svg"
   xmlns:svg="http://www.w3.org/2000/svg">
  <sodipodi:namedview
     id="namedview2"
     pagecolor="#ffffff"
     bordercolor="#000000"
     borderopacity="0.25"
     inkscape:showpageshadow="2"
     inkscape:pageopacity="0.0"
     inkscape:pagecheckerboard="0"
     inkscape:deskcolor="#d1d1d1"
     inkscape:zoom="11.313709"
     inkscape:cx="17.412504"
     inkscape:cy="2.0329319"
     inkscape:window-width="1920"
     inkscape:window-height="1032"
     inkscape:window-x="1920"
     inkscape:window-y="48"
     inkscape:window-maximized="1"
     inkscape:current-layer="22-22-material-you" />
  <defs
     id="materia">
    <inkscape:path-effect
       effect="fillet_chamfer"
       id="path-effect5"
       is_visible="true"
       lpeversion="1"
       nodesatellites_param="IC,0,0,1,0,5,0,5 @ IC,0,0,1,0,5,0,5 @ IC,0,0,1,0,5,0,5 @ IC,0,0,1,0,5,0,5"
       radius="5"
       unit="px"
       method="auto"
       mode="F"
       chamfer_steps="5"
       flexible="false"
       use_knot_distance="true"
       apply_no_radius="true"
       apply_with_radius="true"
       only_selected="false"
       hide_knots="false" />
    <style
       id="current-color-scheme"
       type="text/css">
   .ColorScheme-Background {color:#181818; } .ColorScheme-ButtonBackground { color:#343434; } .ColorScheme-Highlight { color:#4285f4; } .ColorScheme-Text { color:#dfdfdf; } .ColorScheme-ViewBackground { color:#242424; } .ColorScheme-NegativeText { color:#f44336; } .ColorScheme-PositiveText { color:#4caf50; } .ColorScheme-NeutralText { color:#ff9800; }
  </style>
  </defs>
  <g
     id="22-22-material-you"
     transform="translate(27,5.0000005)"
     style="opacity:1;fill:currentColor"
     class="ColorScheme-Text">
    <rect
       style="opacity:0.00100002"
       width="22"
       height="22"
       x="4.7904868"
       y="5"
       id="rect1" />
    <g
       id="g2"
       style="fill:currentColor"
       transform="matrix(0.8,0,0,0.8,31.232856,-3.5882248)">
      <path
         d="m -29.302961,25.985281 v -9.5 c 0,-1.1 0.9,-2 2,-2 h 4 c 1.1,0 2,0.9 2,2 v 1.5 z"
         id="path3-6"
         style="opacity:0.6" />
      <path
         d="m -25.002961,24.485281 6.7,-6.7 c 0.8,-0.8 2,-0.8 2.8,0 l 2.8,2.8 c 0.8,0.8 0.8,2 0,2.8 l -0.9,1.1 h -11.4"
         id="path2-7"
         style="opacity:0.6" />
      <path
         id="rect5-6-5"
         style="stroke-width:1.58114"
         d="m -20.724836,28.485281 h 8.84375 c 0.320281,0 0.578125,0.257844 0.578125,0.578125 v 2.84375 c 0,0.320281 -0.257844,0.578125 -0.578125,0.578125 h -8.84375 c -0.320282,0 -0.578125,-0.257844 -0.578125,-0.578125 v -2.84375 c 0,-0.320281 0.257843,-0.578125 0.578125,-0.578125 z m -6,0 h 2.84375 c 0.320281,0 0.578125,0.257844 0.578125,0.578125 v 2.84375 c 0,0.320281 -0.257844,0.578125 -0.578125,0.578125 h -2.84375 c -0.320282,0 -0.578125,-0.257844 -0.578125,-0.578125 v -2.84375 c 0,-0.320281 0.257843,-0.578125 0.578125,-0.578125 z m -0.578125,-2 c -1.099998,0 -2,0.900002 -2,2 v 4 c 0,1.099998 0.900002,2 2,2 h 14 2 c 1.099998,0 2,-0.900002 2,-2 v -4 c 0,-1.099998 -0.900002,-2 -2,-2 h -2 z" />
    </g>
  </g>
  <g
     id="material-you"
     class="ColorScheme-Text"
     style="opacity:1;fill:currentColor"
     transform="translate(35.302961,-8.4852813)">
    <rect
       style="opacity:0.00100002"
       width="32"
       height="32"
       x="-35.302959"
       y="8.485281"
       id="rect2" />
    <g
       id="g1">
      <path
         d="m -29.302961,25.985281 v -9.5 c 0,-1.1 0.9,-2 2,-2 h 4 c 1.1,0 2,0.9 2,2 v 1.5 z"
         id="path3"
         style="opacity:0.6" />
      <path
         d="m -25.002961,24.485281 6.7,-6.7 c 0.8,-0.8 2,-0.8 2.8,0 l 2.8,2.8 c 0.8,0.8 0.8,2 0,2.8 l -0.9,1.1 h -11.4"
         id="path2"
         style="opacity:0.6" />
      <path
         id="rect5-6"
         style="stroke-width:1.58114"
         d="m -20.724836,28.485281 h 8.84375 c 0.320281,0 0.578125,0.257844 0.578125,0.578125 v 2.84375 c 0,0.320281 -0.257844,0.578125 -0.578125,0.578125 h -8.84375 c -0.320282,0 -0.578125,-0.257844 -0.578125,-0.578125 v -2.84375 c 0,-0.320281 0.257843,-0.578125 0.578125,-0.578125 z m -6,0 h 2.84375 c 0.320281,0 0.578125,0.257844 0.578125,0.578125 v 2.84375 c 0,0.320281 -0.257844,0.578125 -0.578125,0.578125 h -2.84375 c -0.320282,0 -0.578125,-0.257844 -0.578125,-0.578125 v -2.84375 c 0,-0.320281 0.257843,-0.578125 0.578125,-0.578125 z m -0.578125,-2 c -1.099998,0 -2,0.900002 -2,2 v 4 c 0,1.099998 0.900002,2 2,2 h 14 2 c 1.099998,0 2,-0.900002 2,-2 v -4 c 0,-1.099998 -0.900002,-2 -2,-2 h -2 z" />
    </g>
  </g>
</svg>
