<?xml version="1.0" encoding="UTF-8" standalone="no"?>
<svg
   viewBox="0 0 16 16"
   version="1.1"
   id="svg1"
   sodipodi:docname="kde.svg"
   inkscape:version="1.4.3 (0d15f75042, 2025-12-25)"
   width="16"
   height="16"
   xmlns:inkscape="http://www.inkscape.org/namespaces/inkscape"
   xmlns:sodipodi="http://sodipodi.sourceforge.net/DTD/sodipodi-0.dtd"
   xmlns="http://www.w3.org/2000/svg"
   xmlns:svg="http://www.w3.org/2000/svg">
  <sodipodi:namedview
     id="namedview1"
     pagecolor="#ffffff"
     bordercolor="#000000"
     borderopacity="0.25"
     inkscape:showpageshadow="2"
     inkscape:pageopacity="0.0"
     inkscape:pagecheckerboard="true"
     inkscape:deskcolor="#d1d1d1"
     showborder="true"
     inkscape:zoom="35.045455"
     inkscape:cx="10.985733"
     inkscape:cy="11"
     inkscape:window-width="1920"
     inkscape:window-height="987"
     inkscape:window-x="0"
     inkscape:window-y="0"
     inkscape:window-maximized="1"
     inkscape:current-layer="svg1" />
  <defs
     id="defs3051">
    <style
       type="text/css"
       id="current-color-scheme">
      .ColorScheme-Text {
        color:#232629;
      }
      </style>
  </defs>
  <path
     style="fill:#ffffff;fill-opacity:1;stroke:none;stroke-width:0.750009"
     d="M 9.0039111,1.9999985 6.8793768,2.198601 v 8.205027 L 8.9805571,10.116899 V 6.6098561 L 11.782153,10.491904 13.976728,9.8300965 11.105101,6.1025498 14.000075,2.5734557 11.758811,2.0881996 8.9805616,5.6172937 9.0039771,1.9999985 Z M 4.2178799,4.0070986 c -0.023752,0 -0.052143,0.01275 -0.070056,0.0225 L 3.3306964,4.8236338 c -0.034801,0.0345 -0.048931,0.092176 -0.023421,0.1323767 L 4.2644856,6.4559542 C 4.0926434,6.7288826 3.9660129,7.0277613 3.8675868,7.3379652 L 2.0932489,7.6910696 c -0.049471,0.01275 -0.093324,0.040501 -0.093324,0.088576 v 1.1028889 c 0,0.046501 0.045717,0.098551 0.093324,0.1098764 l 1.7276449,0.3970546 c 0.091987,0.35963 0.2316898,0.7014085 0.4202329,1.0144625 l -1.0038912,1.433943 c -0.027849,0.0405 -0.013366,0.09855 0.023421,0.132377 l 0.8171398,0.771834 c 0.034801,0.0315 0.097603,0.048 0.1400707,0.0225 L 5.7820949,11.86037 c 0.3075638,0.167627 0.6299745,0.307504 0.9805613,0.396905 l 0.3735353,1.654296 c 0.010718,0.048 0.042953,0.08843 0.093333,0.08843 h 1.1673168 c 0.049201,0 0.1049555,-0.04275 0.1167202,-0.08843 L 8.933794,12.257275 c 0.3613781,-0.09218 0.7122001,-0.243603 1.0272541,-0.418955 l 1.5408689,0.970512 c 0.04241,0.0255 0.104021,0.01275 0.140079,-0.0225 l 0.817124,-0.77206 c 0.03501,-0.0345 0.04907,-0.09218 0.02341,-0.132226 l -0.560315,-0.882087 -0.186773,0.066 c -0.02665,0.01275 -0.05441,0 -0.07006,-0.0225 0,0 -0.353123,-0.505356 -0.817127,-1.1470635 -0.5547,1.0257125 -1.6851269,1.7205955 -2.9883525,1.7205955 -1.8515647,0 -3.3618995,-1.404767 -3.3618995,-3.1541637 0,-1.2867911 0.8181165,-2.3936549 1.9844567,-2.8894111 V 4.757258 c -0.212287,0.070501 -0.4121019,0.1422017 -0.6070215,0.242778 -1.448e-4,0 -0.022842,0 -0.023421,0 L 4.2878127,4.0293739 c -0.02127,-0.01275 -0.046255,-0.024 -0.070065,-0.02175 z"
     class="ColorScheme-Text"
     id="path1" />
</svg>
