<?xml version="1.0" encoding="UTF-8" standalone="no"?>
<svg
   width="16"
   height="16"
   version="1.1"
   id="svg1"
   sodipodi:docname="kofi.svg"
   inkscape:version="1.4.3 (0d15f75042, 2025-12-25)"
   xmlns:inkscape="http://www.inkscape.org/namespaces/inkscape"
   xmlns:sodipodi="http://sodipodi.sourceforge.net/DTD/sodipodi-0.dtd"
   xmlns="http://www.w3.org/2000/svg"
   xmlns:svg="http://www.w3.org/2000/svg">
  <sodipodi:namedview
     id="namedview1"
     pagecolor="#ffffff"
     bordercolor="#000000"
     borderopacity="0.25"
     inkscape:showpageshadow="2"
     inkscape:pageopacity="0.0"
     inkscape:pagecheckerboard="true"
     inkscape:deskcolor="#d1d1d1"
     inkscape:zoom="17.681818"
     inkscape:cx="5.5706941"
     inkscape:cy="14.902314"
     inkscape:window-width="1129"
     inkscape:window-height="983"
     inkscape:window-x="0"
     inkscape:window-y="0"
     inkscape:window-maximized="0"
     inkscape:current-layer="svg1" />
  <defs
     id="defs1">
    <style
       id="current-color-scheme"
       type="text/css">
   .ColorScheme-Text { color:#dfdfdf; } .ColorScheme-Highlight { color:#4285f4; } .ColorScheme-NeutralText { color:#ff9800; } .ColorScheme-PositiveText { color:#4caf50; } .ColorScheme-NegativeText { color:#f44336; }
  </style>
  </defs>
  <g
     id="g1"
     transform="matrix(0.75,0,0,0.75,-0.25000009,-0.25)">
    <path
       id="path3"
       style="fill:#000000;stroke-width:0.588987"
       d="M 10.441406,3 C 8.1150742,3 6.1454398,3.0221322 4.5566406,3.2246094 2.4517403,3.4917069 0.66015625,5.1023723 0.66015625,8.0800781 c 0,3.0207859 0.1583562,5.2804339 1.36718755,7.3164059 C 3.3921256,17.723678 5.6744636,19 8.6289062,19 H 9.34375 c 3.626494,0 5.595264,-1.925672 6.580078,-3.447266 a 8.1852448,8.1852448 0 0 0 0.939453,-2.013672 c 2.573613,-0.223153 4.476563,-2.350158 4.476563,-4.945312 V 8.2363281 c 0,-2.79763 -1.835037,-4.7438781 -4.990235,-5.0566406 C 15.00723,3.0452771 14.066178,3 10.441406,3 Z m 0,1.6777344 c 3.625632,0 4.38412,0.044241 5.660156,0.15625 2.260851,0.2679592 3.558594,1.365629 3.558594,3.4472656 v 0.3359375 c 0,1.8576205 -1.54357,3.3124985 -3.333984,3.3125005 h -0.804688 l -0.134765,0.558593 c -0.179215,0.872806 -0.513702,1.566111 -0.894531,2.19336 -0.7832,1.230372 -2.193878,2.640625 -5.1035161,2.640625 H 8.6953125 c -2.2151857,0 -4.1619069,-0.761876 -5.2363281,-2.753907 C 2.5198353,12.84515 2.3398436,10.9888 2.3398438,8.1015625 c 0,-1.8791599 0.7389448,-2.930398 2.5957031,-3.1992187 1.32084,-0.2007539 3.0666566,-0.2246094 5.5058591,-0.2246094 z m 5.638672,1.9707031 c -0.356949,8.858e-4 -0.558594,0.2024746 -0.558594,0.4707031 v 2.5273438 c 0,0.267959 0.202118,0.4707036 0.560547,0.4707036 1.140763,-1e-6 1.767578,-0.6490977 1.767578,-1.7226568 0,-1.0733879 -0.6263,-1.7458787 -1.767578,-1.7460937 z" />
    <path
       style="fill:#9e2800;stroke-width:0.588987"
       d="m 7.1288097,6.8048464 c -1.5663974,0 -2.596015,1.2751751 -2.596015,2.7071626 0,1.32084 0.7392569,2.461604 1.6792676,3.357672 0.6263867,0.603986 1.6112007,1.231234 2.2823907,1.633604 a 1.266559,1.266559 0 0 0 1.298439,0 c 0.672051,-0.40237 1.656004,-1.029618 2.259989,-1.633604 0.962412,-0.895206 1.700808,-2.036832 1.700808,-3.357672 0,-1.4319875 -1.074421,-2.7071626 -2.618417,-2.7071626 -0.917609,0 -1.543996,0.4695747 -2.014432,1.118363 C 8.696069,7.2744211 8.04728,6.8048464 7.1288097,6.8048464"
       id="path1" />
  </g>
</svg>
