<?xml version="1.0" encoding="UTF-8" standalone="no"?>
<svg
   width="16"
   height="16"
   version="1.1"
   id="svg1"
   sodipodi:docname="liberapay.svg"
   inkscape:version="1.4.3 (0d15f75042, 2025-12-25)"
   xmlns:inkscape="http://www.inkscape.org/namespaces/inkscape"
   xmlns:sodipodi="http://sodipodi.sourceforge.net/DTD/sodipodi-0.dtd"
   xmlns="http://www.w3.org/2000/svg"
   xmlns:svg="http://www.w3.org/2000/svg">
  <sodipodi:namedview
     id="namedview1"
     pagecolor="#ffffff"
     bordercolor="#000000"
     borderopacity="0.25"
     inkscape:showpageshadow="2"
     inkscape:pageopacity="0.0"
     inkscape:pagecheckerboard="0"
     inkscape:deskcolor="#d1d1d1"
     inkscape:zoom="2.2102273"
     inkscape:cx="-33.028278"
     inkscape:cy="4.2982006"
     inkscape:window-width="1129"
     inkscape:window-height="983"
     inkscape:window-x="0"
     inkscape:window-y="0"
     inkscape:window-maximized="0"
     inkscape:current-layer="svg1" />
  <defs
     id="defs1">
    <style
       id="current-color-scheme"
       type="text/css">
   .ColorScheme-Text { color:#dfdfdf; } .ColorScheme-Highlight { color:#4285f4; } .ColorScheme-NeutralText { color:#ff9800; } .ColorScheme-PositiveText { color:#4caf50; } .ColorScheme-NegativeText { color:#f44336; }
  </style>
  </defs>
  <path
     d="m 5.6692705,11.813734 c -0.591073,0 -1.055121,-0.07714 -1.392165,-0.23095 -0.337045,-0.153806 -0.5783,-0.364145 -0.724543,-0.630924 -0.146244,-0.26678 -0.21612,-0.569731 -0.211939,-0.917447 0.0042,-0.347716 0.0518,-0.713712 0.143593,-1.104981 L 5.0698345,2.299524 7.0052705,2 5.2697755,9.191801 c -0.03332,0.149671 -0.05198,0.287162 -0.05617,0.41188 -0.0042,0.124718 0.01867,0.235177 0.06855,0.330761 0.04988,0.09558 0.135207,0.172887 0.255926,0.230973 0.120719,0.05809 0.289241,0.09597 0.505749,0.112538 z m 1.783092,-6.453936 c 0.333617,-0.09979 0.714466,-0.189293 1.143096,-0.268493 0.428629,-0.0792 0.892882,-0.118434 1.392348,-0.118434 0.4994655,0 0.8679755,0.07065 1.2048145,0.212121 0.336839,0.141467 0.613855,0.335148 0.830409,0.580608 0.216554,0.24546 0.376462,0.532782 0.480409,0.861463 0.103947,0.328681 0.156114,0.680556 0.156114,1.055304 0,0.607434 -0.09992,1.163089 -0.301946,1.66676 -0.202021,0.50367 -0.474376,0.938583 -0.828033,1.304762 -0.353657,0.366179 -0.778265,0.651468 -1.274212,0.856322 -0.4959455,0.204855 -1.0336405,0.304917 -1.6159395,0.304917 -0.28314,0 -0.566121,-0.02523 -0.849078,-0.07531 L 7.2284055,14 h -1.847805 z m 0.674866,4.882189 c 0.141491,0.03332 0.316297,0.04874 0.524419,0.04874 0.324477,0 0.620002,-0.05902 0.886416,-0.179948 0.266414,-0.120925 0.4931815,-0.289058 0.6805555,-0.505567 0.187374,-0.216508 0.332634,-0.47625 0.436833,-0.780344 0.104198,-0.304094 0.156,-0.638671 0.156,-1.005033 0,-0.366361 -0.07922,-0.661704 -0.237165,-0.911551 -0.157943,-0.249847 -0.432789,-0.374542 -0.8239195,-0.374542 -0.266597,0 -0.516238,0.02495 -0.749313,0.07502 z"
     id="path1-5"
     class="ColorScheme-Text"
     style="fill:#000000;stroke-width:0.0781023" />
</svg>
