<?xml version="1.0" encoding="UTF-8" standalone="no"?>
<svg
   width="32"
   height="32"
   version="1.1"
   id="svg2"
   sodipodi:docname="matrix_logo.svg"
   inkscape:version="1.4 (e7c3feb100, 2024-10-09)"
   xmlns:inkscape="http://www.inkscape.org/namespaces/inkscape"
   xmlns:sodipodi="http://sodipodi.sourceforge.net/DTD/sodipodi-0.dtd"
   xmlns="http://www.w3.org/2000/svg"
   xmlns:svg="http://www.w3.org/2000/svg">
  <sodipodi:namedview
     id="namedview2"
     pagecolor="#ffffff"
     bordercolor="#000000"
     borderopacity="0.25"
     inkscape:showpageshadow="2"
     inkscape:pageopacity="0.0"
     inkscape:pagecheckerboard="true"
     inkscape:deskcolor="#d1d1d1"
     inkscape:zoom="11.313709"
     inkscape:cx="26.516504"
     inkscape:cy="30.273009"
     inkscape:window-width="1343"
     inkscape:window-height="1033"
     inkscape:window-x="2497"
     inkscape:window-y="42"
     inkscape:window-maximized="1"
     inkscape:current-layer="material-you"
     showgrid="true">
    <inkscape:grid
       id="grid10"
       units="px"
       originx="0"
       originy="0"
       spacingx="1"
       spacingy="1"
       empcolor="#000000"
       empopacity="0.30196078"
       color="#878787"
       opacity="0.14902"
       empspacing="5"
       enabled="true"
       visible="true" />
    <inkscape:grid
       id="grid11"
       units="px"
       originx="0"
       originy="0"
       spacingx="1"
       spacingy="1"
       empcolor="#0099e5"
       empopacity="0.30196078"
       color="#0099e5"
       opacity="0.14902"
       empspacing="8"
       enabled="true"
       visible="true" />
  </sodipodi:namedview>
  <defs
     id="materia">
    <inkscape:path-effect
       effect="fillet_chamfer"
       id="path-effect5"
       is_visible="true"
       lpeversion="1"
       nodesatellites_param="IC,0,0,1,0,5,0,5 @ IC,0,0,1,0,5,0,5 @ IC,0,0,1,0,5,0,5 @ IC,0,0,1,0,5,0,5"
       radius="5"
       unit="px"
       method="auto"
       mode="F"
       chamfer_steps="5"
       flexible="false"
       use_knot_distance="true"
       apply_no_radius="true"
       apply_with_radius="true"
       only_selected="false"
       hide_knots="false" />
    <style
       id="current-color-scheme"
       type="text/css">
   .ColorScheme-Background {color:#181818; } .ColorScheme-ButtonBackground { color:#343434; } .ColorScheme-Highlight { color:#4285f4; } .ColorScheme-Text { color:#dfdfdf; } .ColorScheme-ViewBackground { color:#242424; } .ColorScheme-NegativeText { color:#f44336; } .ColorScheme-PositiveText { color:#4caf50; } .ColorScheme-NeutralText { color:#ff9800; }
  </style>
  </defs>
  <g
     id="material-you"
     class="ColorScheme-Text"
     style="opacity:1;fill:currentColor"
     transform="translate(35.302961,-8.4852813)">
    <rect
       style="opacity:0.00100002"
       width="32"
       height="32"
       x="-35.302959"
       y="8.485281"
       id="rect2" />
    <path
       id="rect5-6"
       style="stroke-width:0.718888"
       d="m -33.302961,10.485281 h 5.6 v 2.8 h -2.8 v 22.4 h 2.8 v 2.8 h -5.6 v -28 m 25.2,2.8 h -2.8 v -2.8 h 5.6 v 28 h -5.6 v -2.8 h 2.8 v -22.4" />
    <path
       style="fill:currentColor;stroke-width:0.52338"
       d="m -24.576748,19.753756 v 1.312536 h 0.04039 c 0.353642,-0.480695 0.820259,-0.877865 1.36862,-1.167646 0.532752,-0.275291 1.148176,-0.413364 1.827895,-0.413364 0.661353,0 1.267587,0.119322 1.809521,0.357964 0.546536,0.237792 0.964469,0.657122 1.249215,1.261399 0.310465,-0.426148 0.731164,-0.802011 1.267591,-1.12503 0.532751,-0.32643 1.166539,-0.489218 1.89219,-0.489218 0.552957,0 1.0655,0.06307 1.533959,0.187506 0.472128,0.126139 0.876285,0.326428 1.212469,0.602571 0.336183,0.275293 0.5998,0.635814 0.789028,1.082417 0.188296,0.444899 0.28291,0.98014 0.28291,1.610839 v 6.503018 h -2.875029 v -5.505832 c 0,-0.326429 -0.01379,-0.633256 -0.0404,-0.92048 -0.01921,-0.261655 -0.09459,-0.517342 -0.222293,-0.751724 -0.122153,-0.213927 -0.308632,-0.390353 -0.536428,-0.507968 -0.236062,-0.124436 -0.556628,-0.187506 -0.964462,-0.187506 -0.404154,0 -0.731161,0.07245 -0.982839,0.215631 -0.249836,0.14489 -0.445488,0.332395 -0.586947,0.56422 -0.146045,0.24461 -0.242491,0.513081 -0.28291,0.790078 -0.04771,0.295746 -0.07165,0.59405 -0.07165,0.894911 v 5.41208 h -2.875023 v -5.454696 c 0,-0.288076 -0.0065,-0.573594 -0.01926,-0.852295 -0.01071,-0.26762 -0.0688,-0.53098 -0.172684,-0.780703 -0.09916,-0.236085 -0.27556,-0.436376 -0.505197,-0.573595 -0.236984,-0.143186 -0.58419,-0.215631 -1.047139,-0.215631 -0.181866,0.0071 -0.3619,0.0358 -0.536426,0.08524 -0.236979,0.06349 -0.457431,0.172163 -0.647565,0.318757 -0.209426,0.156823 -0.387625,0.382681 -0.536428,0.676723 -0.147888,0.294894 -0.222289,0.680133 -0.222289,1.159122 v 5.642201 h -2.875034 v -9.716185 z"
       id="path3" />
  </g>
</svg>
