<?xml version="1.0" encoding="UTF-8" standalone="no"?>
<svg
   width="22"
   height="22"
   version="1.1"
   id="svg1"
   sodipodi:docname="matrix.svg"
   inkscape:version="1.4.3 (0d15f75042, 2025-12-25)"
   xmlns:inkscape="http://www.inkscape.org/namespaces/inkscape"
   xmlns:sodipodi="http://sodipodi.sourceforge.net/DTD/sodipodi-0.dtd"
   xmlns="http://www.w3.org/2000/svg"
   xmlns:svg="http://www.w3.org/2000/svg">
  <sodipodi:namedview
     id="namedview1"
     pagecolor="#ffffff"
     bordercolor="#000000"
     borderopacity="0.25"
     inkscape:showpageshadow="2"
     inkscape:pageopacity="0.0"
     inkscape:pagecheckerboard="0"
     inkscape:deskcolor="#d1d1d1"
     inkscape:zoom="17.681818"
     inkscape:cx="2.7429306"
     inkscape:cy="14.958869"
     inkscape:window-width="1129"
     inkscape:window-height="491"
     inkscape:window-x="0"
     inkscape:window-y="0"
     inkscape:window-maximized="0"
     inkscape:current-layer="svg1" />
  <defs
     id="defs1">
    <style
       id="current-color-scheme"
       type="text/css">
   .ColorScheme-Text { color:#dfdfdf; } .ColorScheme-Highlight { color:#4285f4; } .ColorScheme-NeutralText { color:#ff9800; } .ColorScheme-PositiveText { color:#4caf50; } .ColorScheme-NegativeText { color:#f44336; }
  </style>
  </defs>
  <path
     d="M 3.4213333,3.3666667 V 18.633333 H 4.52 V 19 H 3 V 3 h 1.52 v 0.3666667 z m 4.6953334,4.84 V 8.978 h 0.022 C 8.3446667,8.6826667 8.594,8.4553333 8.8833333,8.2953333 9.172,8.132 9.5073333,8.052 9.8833333,8.052 10.243333,8.052 10.572,8.123333 10.870667,8.2613333 11.169333,8.4 11.394,8.6493333 11.550667,9 11.72,8.7506667 11.950667,8.5293333 12.24,8.3386667 12.529333,8.1473333 12.873333,8.052 13.270667,8.052 c 0.302,0 0.581333,0.037333 0.84,0.1113333 0.258666,0.073333 0.477333,0.1906667 0.662,0.3533334 0.184,0.1633333 0.326,0.3726666 0.430666,0.634 C 15.304667,9.412 15.356667,9.726 15.356667,10.095333 V 13.914 h -1.566 V 10.68 c 0,-0.190667 -0.0067,-0.372667 -0.02133,-0.541333 a 1.17,1.17 0 0 0 -0.12,-0.4400003 A 0.73733333,0.73733333 0 0 0 13.357333,9.4 C 13.228,9.3266667 13.052667,9.2893333 12.834,9.2893333 c -0.221333,0 -0.4,0.042667 -0.535333,0.126 a 0.92,0.92 0 0 0 -0.32,0.3326667 1.2973333,1.2973333 0 0 0 -0.154,0.464 3.7066667,3.7066667 0 0 0 -0.04,0.523333 V 13.914 H 10.218 v -3.2 c 0,-0.169333 -0.0027,-0.335333 -0.012,-0.501333 A 1.3826667,1.3826667 0 0 0 10.110667,9.754 0.70133333,0.70133333 0 0 0 9.834,9.4186667 C 9.7046667,9.3353333 9.5166667,9.292 9.2646667,9.292 9.1906667,9.292 9.092,9.308 8.972,9.3413333 c -0.12,0.034 -0.24,0.095333 -0.3533333,0.188 C 8.5046667,9.6213333 8.406,9.754 8.326,9.926 c -0.08,0.172667 -0.12,0.4 -0.12,0.68 v 3.310667 H 6.64 V 8.2066667 Z M 18.578667,18.633333 V 3.3666667 H 17.48 V 3 H 19 v 16 h -1.52 v -0.366667 z"
     id="path1-5"
     class="ColorScheme-Text"
     style="fill:currentColor;stroke-width:0.455729" />
</svg>
